<svg width="190" height="24" viewBox="0 0 190 24" fill="none" xmlns="http://www.w3.org/2000/svg">
<path d="M0.974656 18V0.959999H6.63866C8.79866 0.959999 10.4547 1.36 11.6067 2.16C12.7747 2.944 13.3587 4.096 13.3587 5.616C13.3587 6.432 13.1587 7.168 12.7587 7.824C12.3587 8.48 11.7907 8.992 11.0547 9.36C11.8387 9.664 12.4627 10.152 12.9267 10.824C13.3907 11.48 13.6227 12.248 13.6227 13.128C13.6227 14.616 13.0707 15.8 11.9667 16.68C10.8627 17.56 9.35066 18 7.43066 18H0.974656ZM6.68666 3.504H4.02266V8.136H6.63866C7.85466 8.136 8.75866 7.952 9.35066 7.584C9.94266 7.2 10.2387 6.592 10.2387 5.76C10.2387 4.992 9.95066 4.424 9.37466 4.056C8.81466 3.688 7.91866 3.504 6.68666 3.504ZM4.02266 15.456H7.35866C8.33466 15.456 9.10266 15.264 9.66266 14.88C10.2387 14.496 10.5267 13.888 10.5267 13.056C10.5267 11.504 9.44666 10.728 7.28666 10.728H4.02266V15.456ZM18.8982 5.88V18H15.9702V5.88H18.8982ZM17.4342 3.96C16.8582 3.96 16.4022 3.784 16.0662 3.432C15.7302 3.08 15.5622 2.656 15.5622 2.16C15.5622 1.664 15.7302 1.24 16.0662 0.887999C16.4022 0.535999 16.8582 0.36 17.4342 0.36C18.0102 0.36 18.4662 0.535999 18.8022 0.887999C19.1382 1.24 19.3062 1.664 19.3062 2.16C19.3062 2.656 19.1382 3.08 18.8022 3.432C18.4662 3.784 18.0102 3.96 17.4342 3.96ZM22.017 18V5.88H24.945L24.801 8.928C25.265 7.888 25.897 7.088 26.697 6.528C27.497 5.968 28.409 5.688 29.433 5.688C30.793 5.688 31.817 6.16 32.505 7.104C33.209 8.032 33.553 9.368 33.537 11.112L33.489 18H30.561L30.609 11.352C30.625 10.408 30.473 9.688 30.153 9.192C29.849 8.68 29.353 8.424 28.665 8.424C28.137 8.424 27.649 8.576 27.201 8.88C26.753 9.184 26.361 9.704 26.025 10.44C25.689 11.16 25.425 12.144 25.233 13.392C25.041 14.624 24.937 16.16 24.921 18H22.017ZM41.614 18.216C40.158 18.216 39.022 17.816 38.206 17.016C37.406 16.216 37.014 15.168 37.03 13.872L37.126 8.328H35.062V5.88H37.174L37.198 3.384H40.126L40.078 5.88H44.038V8.328H40.054L39.982 13.56C39.966 14.216 40.126 14.736 40.462 15.12C40.814 15.488 41.334 15.672 42.022 15.672C42.39 15.672 42.734 15.624 43.054 15.528C43.374 15.432 43.71 15.256 44.062 15L44.926 17.256C44.558 17.576 44.086 17.816 43.51 17.976C42.934 18.136 42.302 18.216 41.614 18.216ZM57.2982 5.928V18H54.3222L54.4182 15.888C53.9862 16.624 53.4182 17.2 52.7142 17.616C52.0262 18.016 51.2342 18.216 50.3382 18.216C49.2822 18.216 48.3862 17.976 47.6502 17.496C46.9142 17 46.3542 16.32 45.9702 15.456C45.5862 14.592 45.3942 13.6 45.3942 12.48C45.3942 11.136 45.6582 9.96 46.1862 8.952C46.7142 7.928 47.4342 7.128 48.3462 6.552C49.2742 5.976 50.3142 5.688 51.4662 5.688C52.2342 5.688 52.9142 5.856 53.5062 6.192C54.0982 6.512 54.5542 6.944 54.8742 7.488L55.1622 5.928H57.2982ZM51.6822 8.28C50.6902 8.28 49.8982 8.656 49.3062 9.408C48.7142 10.16 48.4182 11.144 48.4182 12.36C48.4182 13.4 48.6422 14.208 49.0902 14.784C49.5382 15.36 50.1542 15.648 50.9382 15.648C51.5782 15.648 52.1542 15.464 52.6662 15.096C53.1942 14.728 53.6102 14.216 53.9142 13.56C54.2182 12.904 54.3702 12.152 54.3702 11.304C54.3702 10.36 54.1302 9.624 53.6502 9.096C53.1702 8.552 52.5142 8.28 51.6822 8.28ZM60.4077 18V5.88H63.3357L63.1917 8.928C63.6557 7.888 64.2877 7.088 65.0877 6.528C65.8877 5.968 66.7997 5.688 67.8237 5.688C69.1837 5.688 70.2077 6.16 70.8957 7.104C71.5997 8.032 71.9437 9.368 71.9277 11.112L71.8797 18H68.9517L68.9997 11.352C69.0157 10.408 68.8637 9.688 68.5437 9.192C68.2397 8.68 67.7437 8.424 67.0557 8.424C66.5277 8.424 66.0397 8.576 65.5917 8.88C65.1437 9.184 64.7517 9.704 64.4157 10.44C64.0797 11.16 63.8157 12.144 63.6237 13.392C63.4317 14.624 63.3277 16.16 63.3117 18H60.4077ZM79.2366 23.04C78.5326 23.04 77.7726 22.968 76.9566 22.824C76.1566 22.68 75.4926 22.44 74.9646 22.104L75.6846 19.56C76.2126 19.832 76.7806 20.048 77.3886 20.208C78.0126 20.368 78.6766 20.448 79.3806 20.448C80.8046 20.448 81.8126 20.112 82.4046 19.44C82.9966 18.768 83.3246 17.712 83.3886 16.272L83.4366 15.528C82.9886 16.28 82.4206 16.856 81.7326 17.256C81.0606 17.64 80.2686 17.832 79.3566 17.832C78.2686 17.832 77.3406 17.6 76.5726 17.136C75.8206 16.672 75.2526 16.024 74.8686 15.192C74.4846 14.36 74.2926 13.408 74.2926 12.336C74.2926 11.04 74.5486 9.896 75.0606 8.904C75.5886 7.896 76.3086 7.112 77.2206 6.552C78.1486 5.976 79.2126 5.688 80.4126 5.688C81.2126 5.688 81.9086 5.856 82.5006 6.192C83.0926 6.512 83.5486 6.944 83.8686 7.488L84.1566 5.928H86.2926V15.912C86.2926 18.296 85.6686 20.08 84.4206 21.264C83.1726 22.448 81.4446 23.04 79.2366 23.04ZM80.6286 8.28C79.6206 8.28 78.8126 8.64 78.2046 9.36C77.6126 10.08 77.3166 11.008 77.3166 12.144C77.3166 13.136 77.5486 13.904 78.0126 14.448C78.4766 14.992 79.1086 15.264 79.9086 15.264C80.5646 15.264 81.1486 15.088 81.6606 14.736C82.1886 14.368 82.6046 13.872 82.9086 13.248C83.2126 12.624 83.3646 11.92 83.3646 11.136C83.3646 10.24 83.1166 9.544 82.6206 9.048C82.1246 8.536 81.4606 8.28 80.6286 8.28ZM95.4512 18V0.959999H98.5712V8.568L105.651 0.959999H109.443L101.427 9.456C102.099 9.808 102.675 10.368 103.155 11.136L105.075 14.112C105.411 14.624 105.739 14.976 106.059 15.168C106.379 15.36 106.779 15.456 107.259 15.456C107.835 15.456 108.339 15.312 108.771 15.024L109.491 17.448C109.187 17.688 108.795 17.872 108.315 18C107.851 18.144 107.363 18.216 106.851 18.216C105.043 18.216 103.635 17.424 102.627 15.84L100.155 12.048C99.9312 11.712 99.6992 11.456 99.4592 11.28C99.2352 11.088 98.9392 10.952 98.5712 10.872V18H95.4512ZM115.926 18.216C114.614 18.216 113.478 17.976 112.518 17.496C111.574 17 110.846 16.296 110.334 15.384C109.822 14.472 109.566 13.384 109.566 12.12C109.566 10.856 109.83 9.744 110.358 8.784C110.886 7.808 111.598 7.048 112.494 6.504C113.406 5.96 114.438 5.688 115.59 5.688C117.462 5.688 118.838 6.328 119.718 7.608C120.614 8.872 120.926 10.624 120.654 12.864H112.542C112.606 13.712 112.95 14.392 113.574 14.904C114.198 15.416 115.054 15.672 116.142 15.672C116.654 15.672 117.166 15.56 117.678 15.336C118.206 15.112 118.654 14.768 119.022 14.304L120.726 16.032C120.182 16.72 119.518 17.256 118.734 17.64C117.966 18.024 117.03 18.216 115.926 18.216ZM115.638 7.896C114.822 7.896 114.15 8.152 113.622 8.664C113.094 9.176 112.758 9.864 112.614 10.728H118.134C118.166 9.736 117.95 9.016 117.486 8.568C117.022 8.12 116.406 7.896 115.638 7.896ZM123.173 18V5.88H126.101L125.957 8.928C126.421 7.888 127.053 7.088 127.853 6.528C128.653 5.968 129.565 5.688 130.589 5.688C131.949 5.688 132.973 6.16 133.661 7.104C134.365 8.032 134.709 9.368 134.693 11.112L134.645 18H131.717L131.765 11.352C131.781 10.408 131.629 9.688 131.309 9.192C131.005 8.68 130.509 8.424 129.821 8.424C129.293 8.424 128.805 8.576 128.357 8.88C127.909 9.184 127.517 9.704 127.181 10.44C126.845 11.16 126.581 12.144 126.389 13.392C126.197 14.624 126.093 16.16 126.077 18H123.173ZM143.034 18.216C141.194 18.216 139.738 17.688 138.666 16.632C137.594 15.56 137.058 14.072 137.058 12.168C137.058 10.888 137.322 9.76 137.85 8.784C138.378 7.808 139.114 7.048 140.058 6.504C141.002 5.96 142.09 5.688 143.322 5.688C144.346 5.688 145.242 5.888 146.01 6.288C146.778 6.688 147.402 7.312 147.882 8.16L145.794 9.744C145.49 9.232 145.138 8.864 144.738 8.64C144.354 8.416 143.882 8.304 143.322 8.304C142.378 8.304 141.602 8.656 140.994 9.36C140.402 10.064 140.106 10.992 140.106 12.144C140.106 13.264 140.37 14.128 140.898 14.736C141.442 15.328 142.218 15.624 143.226 15.624C143.754 15.624 144.242 15.504 144.69 15.264C145.154 15.024 145.538 14.648 145.842 14.136L147.882 15.768C147.338 16.648 146.65 17.28 145.818 17.664C144.986 18.032 144.058 18.216 143.034 18.216ZM160.329 5.928V18H157.353L157.449 15.888C157.017 16.624 156.449 17.2 155.745 17.616C155.057 18.016 154.265 18.216 153.369 18.216C152.313 18.216 151.417 17.976 150.681 17.496C149.945 17 149.385 16.32 149.001 15.456C148.617 14.592 148.425 13.6 148.425 12.48C148.425 11.136 148.689 9.96 149.217 8.952C149.745 7.928 150.465 7.128 151.377 6.552C152.305 5.976 153.345 5.688 154.497 5.688C155.265 5.688 155.945 5.856 156.537 6.192C157.129 6.512 157.585 6.944 157.905 7.488L158.193 5.928H160.329ZM154.713 8.28C153.721 8.28 152.929 8.656 152.337 9.408C151.745 10.16 151.449 11.144 151.449 12.36C151.449 13.4 151.673 14.208 152.121 14.784C152.569 15.36 153.185 15.648 153.969 15.648C154.609 15.648 155.185 15.464 155.697 15.096C156.225 14.728 156.641 14.216 156.945 13.56C157.249 12.904 157.401 12.152 157.401 11.304C157.401 10.36 157.161 9.624 156.681 9.096C156.201 8.552 155.545 8.28 154.713 8.28ZM163.439 18V5.88H166.367L166.223 8.928C166.687 7.888 167.319 7.088 168.119 6.528C168.919 5.968 169.831 5.688 170.855 5.688C172.215 5.688 173.239 6.16 173.927 7.104C174.631 8.032 174.975 9.368 174.959 11.112L174.911 18H171.983L172.031 11.352C172.047 10.408 171.895 9.688 171.575 9.192C171.271 8.68 170.775 8.424 170.087 8.424C169.559 8.424 169.071 8.576 168.623 8.88C168.175 9.184 167.783 9.704 167.447 10.44C167.111 11.16 166.847 12.144 166.655 13.392C166.463 14.624 166.359 16.16 166.343 18H163.439ZM189.228 5.928V18H186.252L186.348 15.888C185.916 16.624 185.348 17.2 184.644 17.616C183.956 18.016 183.164 18.216 182.268 18.216C181.212 18.216 180.316 17.976 179.58 17.496C178.844 17 178.284 16.32 177.9 15.456C177.516 14.592 177.324 13.6 177.324 12.48C177.324 11.136 177.588 9.96 178.116 8.952C178.644 7.928 179.364 7.128 180.276 6.552C181.204 5.976 182.244 5.688 183.396 5.688C184.164 5.688 184.844 5.856 185.436 6.192C186.028 6.512 186.484 6.944 186.804 7.488L187.092 5.928H189.228ZM183.612 8.28C182.62 8.28 181.828 8.656 181.236 9.408C180.644 10.16 180.348 11.144 180.348 12.36C180.348 13.4 180.572 14.208 181.02 14.784C181.468 15.36 182.084 15.648 182.868 15.648C183.508 15.648 184.084 15.464 184.596 15.096C185.124 14.728 185.54 14.216 185.844 13.56C186.148 12.904 186.3 12.152 186.3 11.304C186.3 10.36 186.06 9.624 185.58 9.096C185.1 8.552 184.444 8.28 183.612 8.28Z" fill="black"/>
</svg>
