<svg width="126" height="16" viewBox="0 0 126 16" fill="none" xmlns="http://www.w3.org/2000/svg">
<path d="M0.316438 12V0.639999H4.09244C5.53244 0.639999 6.63644 0.906666 7.40444 1.44C8.1831 1.96267 8.57244 2.73067 8.57244 3.744C8.57244 4.288 8.4391 4.77867 8.17244 5.216C7.90577 5.65333 7.5271 5.99467 7.03644 6.24C7.5591 6.44267 7.9751 6.768 8.28444 7.216C8.59377 7.65333 8.74844 8.16533 8.74844 8.752C8.74844 9.744 8.38044 10.5333 7.64444 11.12C6.90844 11.7067 5.90044 12 4.62044 12H0.316438ZM4.12444 2.336H2.34844V5.424H4.09244C4.9031 5.424 5.50577 5.30133 5.90044 5.056C6.2951 4.8 6.49244 4.39467 6.49244 3.84C6.49244 3.328 6.30044 2.94933 5.91644 2.704C5.5431 2.45867 4.94577 2.336 4.12444 2.336ZM2.34844 10.304H4.57244C5.2231 10.304 5.7351 10.176 6.10844 9.92C6.49244 9.664 6.68444 9.25867 6.68444 8.704C6.68444 7.66933 5.96444 7.152 4.52444 7.152H2.34844V10.304ZM12.2654 3.92V12H10.3134V3.92H12.2654ZM11.2894 2.64C10.9054 2.64 10.6014 2.52267 10.3774 2.288C10.1534 2.05333 10.0414 1.77067 10.0414 1.44C10.0414 1.10933 10.1534 0.826666 10.3774 0.591999C10.6014 0.357333 10.9054 0.24 11.2894 0.24C11.6734 0.24 11.9774 0.357333 12.2014 0.591999C12.4254 0.826666 12.5374 1.10933 12.5374 1.44C12.5374 1.77067 12.4254 2.05333 12.2014 2.288C11.9774 2.52267 11.6734 2.64 11.2894 2.64ZM14.3447 12V3.92H16.2967L16.2007 5.952C16.51 5.25867 16.9314 4.72533 17.4647 4.352C17.998 3.97867 18.606 3.792 19.2887 3.792C20.1954 3.792 20.878 4.10667 21.3367 4.736C21.806 5.35467 22.0354 6.24533 22.0247 7.408L21.9927 12H20.0407L20.0727 7.568C20.0834 6.93867 19.982 6.45867 19.7687 6.128C19.566 5.78667 19.2354 5.616 18.7767 5.616C18.4247 5.616 18.0994 5.71733 17.8007 5.92C17.502 6.12267 17.2407 6.46933 17.0167 6.96C16.7927 7.44 16.6167 8.096 16.4887 8.928C16.3607 9.74933 16.2914 10.7733 16.2807 12H14.3447ZM27.4093 12.144C26.4386 12.144 25.6813 11.8773 25.1373 11.344C24.604 10.8107 24.3426 10.112 24.3533 9.248L24.4173 5.552H23.0413V3.92H24.4493L24.4653 2.256H26.4173L26.3853 3.92H29.0253V5.552H26.3693L26.3213 9.04C26.3106 9.47733 26.4173 9.824 26.6413 10.08C26.876 10.3253 27.2226 10.448 27.6813 10.448C27.9266 10.448 28.156 10.416 28.3693 10.352C28.5826 10.288 28.8066 10.1707 29.0413 10L29.6173 11.504C29.372 11.7173 29.0573 11.8773 28.6733 11.984C28.2893 12.0907 27.868 12.144 27.4093 12.144ZM37.8654 3.952V12H35.8814L35.9454 10.592C35.6574 11.0827 35.2788 11.4667 34.8094 11.744C34.3508 12.0107 33.8228 12.144 33.2254 12.144C32.5214 12.144 31.9241 11.984 31.4334 11.664C30.9428 11.3333 30.5694 10.88 30.3134 10.304C30.0574 9.728 29.9294 9.06667 29.9294 8.32C29.9294 7.424 30.1054 6.64 30.4574 5.968C30.8094 5.28533 31.2894 4.752 31.8974 4.368C32.5161 3.984 33.2094 3.792 33.9774 3.792C34.4894 3.792 34.9428 3.904 35.3374 4.128C35.7321 4.34133 36.0361 4.62933 36.2494 4.992L36.4414 3.952H37.8654ZM34.1214 5.52C33.4601 5.52 32.9321 5.77067 32.5374 6.272C32.1428 6.77333 31.9454 7.42933 31.9454 8.24C31.9454 8.93333 32.0948 9.472 32.3934 9.856C32.6921 10.24 33.1028 10.432 33.6254 10.432C34.0521 10.432 34.4361 10.3093 34.7774 10.064C35.1294 9.81867 35.4068 9.47733 35.6094 9.04C35.8121 8.60267 35.9134 8.10133 35.9134 7.536C35.9134 6.90667 35.7534 6.416 35.4334 6.064C35.1134 5.70133 34.6761 5.52 34.1214 5.52ZM39.9384 12V3.92H41.8904L41.7944 5.952C42.1038 5.25867 42.5251 4.72533 43.0584 4.352C43.5918 3.97867 44.1998 3.792 44.8824 3.792C45.7891 3.792 46.4718 4.10667 46.9304 4.736C47.3998 5.35467 47.6291 6.24533 47.6184 7.408L47.5864 12H45.6344L45.6664 7.568C45.6771 6.93867 45.5758 6.45867 45.3624 6.128C45.1598 5.78667 44.8291 5.616 44.3704 5.616C44.0184 5.616 43.6931 5.71733 43.3944 5.92C43.0958 6.12267 42.8344 6.46933 42.6104 6.96C42.3864 7.44 42.2104 8.096 42.0824 8.928C41.9544 9.74933 41.8851 10.7733 41.8744 12H39.9384ZM52.4911 15.36C52.0217 15.36 51.5151 15.312 50.9711 15.216C50.4377 15.12 49.9951 14.96 49.6431 14.736L50.1231 13.04C50.4751 13.2213 50.8537 13.3653 51.2591 13.472C51.6751 13.5787 52.1177 13.632 52.5871 13.632C53.5364 13.632 54.2084 13.408 54.6031 12.96C54.9977 12.512 55.2164 11.808 55.2591 10.848L55.2911 10.352C54.9924 10.8533 54.6137 11.2373 54.1551 11.504C53.7071 11.76 53.1791 11.888 52.5711 11.888C51.8457 11.888 51.2271 11.7333 50.7151 11.424C50.2137 11.1147 49.8351 10.6827 49.5791 10.128C49.3231 9.57333 49.1951 8.93867 49.1951 8.224C49.1951 7.36 49.3657 6.59733 49.7071 5.936C50.0591 5.264 50.5391 4.74133 51.1471 4.368C51.7657 3.984 52.4751 3.792 53.2751 3.792C53.8084 3.792 54.2724 3.904 54.6671 4.128C55.0617 4.34133 55.3657 4.62933 55.5791 4.992L55.7711 3.952H57.1951V10.608C57.1951 12.1973 56.7791 13.3867 55.9471 14.176C55.1151 14.9653 53.9631 15.36 52.4911 15.36ZM53.4191 5.52C52.7471 5.52 52.2084 5.76 51.8031 6.24C51.4084 6.72 51.2111 7.33867 51.2111 8.096C51.2111 8.75733 51.3657 9.26933 51.6751 9.632C51.9844 9.99467 52.4057 10.176 52.9391 10.176C53.3764 10.176 53.7657 10.0587 54.1071 9.824C54.4591 9.57867 54.7364 9.248 54.9391 8.832C55.1417 8.416 55.2431 7.94667 55.2431 7.424C55.2431 6.82667 55.0777 6.36267 54.7471 6.032C54.4164 5.69067 53.9737 5.52 53.4191 5.52ZM63.3008 12V0.639999H65.3808V5.712L70.1008 0.639999H72.6288L67.2848 6.304C67.7328 6.53867 68.1168 6.912 68.4368 7.424L69.7168 9.408C69.9408 9.74933 70.1595 9.984 70.3728 10.112C70.5861 10.24 70.8528 10.304 71.1728 10.304C71.5568 10.304 71.8928 10.208 72.1808 10.016L72.6608 11.632C72.4581 11.792 72.1968 11.9147 71.8768 12C71.5675 12.096 71.2421 12.144 70.9008 12.144C69.6955 12.144 68.7568 11.616 68.0848 10.56L66.4368 8.032C66.2875 7.808 66.1328 7.63733 65.9728 7.52C65.8235 7.392 65.6261 7.30133 65.3808 7.248V12H63.3008ZM76.9507 12.144C76.076 12.144 75.3187 11.984 74.6787 11.664C74.0494 11.3333 73.564 10.864 73.2227 10.256C72.8814 9.648 72.7107 8.92267 72.7107 8.08C72.7107 7.23733 72.8867 6.496 73.2387 5.856C73.5907 5.20533 74.0654 4.69867 74.6627 4.336C75.2707 3.97333 75.9587 3.792 76.7267 3.792C77.9747 3.792 78.892 4.21867 79.4787 5.072C80.076 5.91467 80.284 7.08267 80.1027 8.576H74.6947C74.7374 9.14133 74.9667 9.59467 75.3827 9.936C75.7987 10.2773 76.3694 10.448 77.0947 10.448C77.436 10.448 77.7774 10.3733 78.1187 10.224C78.4707 10.0747 78.7694 9.84533 79.0147 9.536L80.1507 10.688C79.788 11.1467 79.3454 11.504 78.8227 11.76C78.3107 12.016 77.6867 12.144 76.9507 12.144ZM76.7587 5.264C76.2147 5.264 75.7667 5.43467 75.4147 5.776C75.0627 6.11733 74.8387 6.576 74.7427 7.152H78.4227C78.444 6.49067 78.3 6.01067 77.9907 5.712C77.6814 5.41333 77.2707 5.264 76.7587 5.264ZM81.7822 12V3.92H83.7342L83.6382 5.952C83.9475 5.25867 84.3689 4.72533 84.9022 4.352C85.4355 3.97867 86.0435 3.792 86.7262 3.792C87.6329 3.792 88.3155 4.10667 88.7742 4.736C89.2435 5.35467 89.4729 6.24533 89.4622 7.408L89.4302 12H87.4782L87.5102 7.568C87.5209 6.93867 87.4195 6.45867 87.2062 6.128C87.0035 5.78667 86.6729 5.616 86.2142 5.616C85.8622 5.616 85.5369 5.71733 85.2382 5.92C84.9395 6.12267 84.6782 6.46933 84.4542 6.96C84.2302 7.44 84.0542 8.096 83.9262 8.928C83.7982 9.74933 83.7289 10.7733 83.7182 12H81.7822ZM95.0228 12.144C93.7961 12.144 92.8255 11.792 92.1108 11.088C91.3961 10.3733 91.0388 9.38133 91.0388 8.112C91.0388 7.25867 91.2148 6.50667 91.5668 5.856C91.9188 5.20533 92.4095 4.69867 93.0388 4.336C93.6681 3.97333 94.3935 3.792 95.2148 3.792C95.8975 3.792 96.4948 3.92533 97.0068 4.192C97.5188 4.45867 97.9348 4.87467 98.2548 5.44L96.8628 6.496C96.6601 6.15467 96.4255 5.90933 96.1588 5.76C95.9028 5.61067 95.5881 5.536 95.2148 5.536C94.5855 5.536 94.0681 5.77067 93.6628 6.24C93.2681 6.70933 93.0708 7.328 93.0708 8.096C93.0708 8.84267 93.2468 9.41867 93.5988 9.824C93.9615 10.2187 94.4788 10.416 95.1508 10.416C95.5028 10.416 95.8281 10.336 96.1268 10.176C96.4361 10.016 96.6921 9.76533 96.8948 9.424L98.2548 10.512C97.8921 11.0987 97.4335 11.52 96.8788 11.776C96.3241 12.0213 95.7055 12.144 95.0228 12.144ZM106.553 3.952V12H104.569L104.633 10.592C104.345 11.0827 103.966 11.4667 103.497 11.744C103.038 12.0107 102.51 12.144 101.913 12.144C101.209 12.144 100.612 11.984 100.121 11.664C99.6303 11.3333 99.2569 10.88 99.0009 10.304C98.7449 9.728 98.6169 9.06667 98.6169 8.32C98.6169 7.424 98.7929 6.64 99.1449 5.968C99.4969 5.28533 99.9769 4.752 100.585 4.368C101.204 3.984 101.897 3.792 102.665 3.792C103.177 3.792 103.63 3.904 104.025 4.128C104.42 4.34133 104.724 4.62933 104.937 4.992L105.129 3.952H106.553ZM102.809 5.52C102.148 5.52 101.62 5.77067 101.225 6.272C100.83 6.77333 100.633 7.42933 100.633 8.24C100.633 8.93333 100.782 9.472 101.081 9.856C101.38 10.24 101.79 10.432 102.313 10.432C102.74 10.432 103.124 10.3093 103.465 10.064C103.817 9.81867 104.094 9.47733 104.297 9.04C104.5 8.60267 104.601 8.10133 104.601 7.536C104.601 6.90667 104.441 6.416 104.121 6.064C103.801 5.70133 103.364 5.52 102.809 5.52ZM108.626 12V3.92H110.578L110.482 5.952C110.791 5.25867 111.213 4.72533 111.746 4.352C112.279 3.97867 112.887 3.792 113.57 3.792C114.477 3.792 115.159 4.10667 115.618 4.736C116.087 5.35467 116.317 6.24533 116.306 7.408L116.274 12H114.322L114.354 7.568C114.365 6.93867 114.263 6.45867 114.05 6.128C113.847 5.78667 113.517 5.616 113.058 5.616C112.706 5.616 112.381 5.71733 112.082 5.92C111.783 6.12267 111.522 6.46933 111.298 6.96C111.074 7.44 110.898 8.096 110.77 8.928C110.642 9.74933 110.573 10.7733 110.562 12H108.626ZM125.819 3.952V12H123.835L123.899 10.592C123.611 11.0827 123.232 11.4667 122.763 11.744C122.304 12.0107 121.776 12.144 121.179 12.144C120.475 12.144 119.877 11.984 119.387 11.664C118.896 11.3333 118.523 10.88 118.267 10.304C118.011 9.728 117.883 9.06667 117.883 8.32C117.883 7.424 118.059 6.64 118.411 5.968C118.763 5.28533 119.243 4.752 119.851 4.368C120.469 3.984 121.163 3.792 121.931 3.792C122.443 3.792 122.896 3.904 123.291 4.128C123.685 4.34133 123.989 4.62933 124.203 4.992L124.395 3.952H125.819ZM122.075 5.52C121.413 5.52 120.885 5.77067 120.491 6.272C120.096 6.77333 119.899 7.42933 119.899 8.24C119.899 8.93333 120.048 9.472 120.347 9.856C120.645 10.24 121.056 10.432 121.579 10.432C122.005 10.432 122.389 10.3093 122.731 10.064C123.083 9.81867 123.36 9.47733 123.563 9.04C123.765 8.60267 123.867 8.10133 123.867 7.536C123.867 6.90667 123.707 6.416 123.387 6.064C123.067 5.70133 122.629 5.52 122.075 5.52Z" fill="black"/>
</svg>
